# xmcd CD database file
#
# Track frame offsets:
#	150
#	3675
#	29775
#	53925
#	83475
#	101775
#	121950
#	142950
#	174750
#	202650
#	235200
#	254850
#
# Disc length: 3532 seconds
#
# Revision: 0
# Processed by: cddbd v1.5.2PL0 Copyright (c) Steve Scherf et al.
# Submitted via: CDex 1.51
#
DISCID=9f0dca0c
DTITLE=Singas Project - Searching for happiness
DYEAR=1900
DGENRE=New Age
TTITLE0=01 - searching for happiness_intro
TTITLE1=02 - oh daddy
TTITLE2=03 - sign of the sun
TTITLE3=04 - stairs
TTITLE4=05 - killerFolk
TTITLE5=06 - red letter
TTITLE6=07 - another day
TTITLE7=08 - holiday
TTITLE8=09 - brazilectro
TTITLE9=10 - fevertime
TTITLE10=11 - rainbow
TTITLE11=12 - searching for happiness
EXTD=
EXTT0=
EXTT1=
EXTT2=
EXTT3=
EXTT4=
EXTT5=
EXTT6=
EXTT7=
EXTT8=
EXTT9=
EXTT10=
EXTT11=
PLAYORDER=
